<svg width="107" height="117" viewBox="0 0 107 117" xmlns="http://www.w3.org/2000/svg"><title>Marca</title><g id="Logo-Apae" fill="none" fill-rule="evenodd"><g id="Marca"><path d="M35.048 63.8c-.086-2.547-2.066-6.974-2.468-7.75l-4.32-8.814-4.174-13.368c-.84-2.45-2.188-3.34-3.715-2.96l-.137.02c-1.66.216-2.363 2.782-2.276 4.073l1.726 9.284c.055.822 3.333 7.728 3.333 7.728l-8.784-13.667 3.674-18.554c.383-2.263-.015-3.62-1.521-4.274l-.127-.052c-1.507-.653-3.268.205-3.94 1.91L6.405 37.908a3.612 3.612 0 0 0-.09 2.433c.05.375.161.746.335 1.09l3.272 8.936s.77 2.296 1.232 3.015c.55.858 1.19 1.586 1.914 2.292 2.239 2.181 4.798 5.98 4.798 5.98 1.634 2.277 3.67 5.146 3.67 5.146l-.646 2.48 12.327 6.687s1.918-9.796 1.831-12.168" id="Fill-55" fill="#B6B6A7"/><path d="M22.895 21.158c.24-1.318-.54-2.203-1.43-2.61l-.07-.035a1.616 1.616 0 0 0-.76-.14c.046.017.092.03.132.05l.077.033c.886.41 1.104 1.208.865 2.528l-1.868 10.564.224-.592 2.83-9.798z" id="Fill-56" fill="#B6B6A7"/><path d="M20.396 19.938c.24-1.317-.539-2.206-1.43-2.61l-.07-.036a1.588 1.588 0 0 0-.76-.139c.046.016.087.032.133.052l.076.033c.88.408 1.105 1.208.865 2.523l-3.216 18.342.23-.59 4.172-17.575z" id="Fill-57" fill="#B6B6A7"/><path d="M77.494 58.471c-.596-2.518.178-7.376.36-8.243l3.11-10.457.546-14.19c.173-2.624 1.272-3.855 2.89-3.886l.143-.016c1.71-.232 3.095 2.09 3.348 3.377l.79 9.546c.163.817-1.232 8.446-1.232 8.446l5.043-15.71L83.86 10.16c-.993-2.112-.968-3.547.35-4.585l.113-.089c1.323-1.036 3.308-.667 4.438.826l11.385 18.511c.535.715.784 1.558.738 2.354.056.385.046.774-.035 1.16l-.845 9.618s-.15 2.45-.407 3.277c-.316.986-.76 1.867-1.284 2.75-1.638 2.731-3.714 7.104-3.714 7.104-1.018 2.671-2.82 6-2.82 6l.362 9.708-12.43 5.92s-1.663-11.9-2.218-14.243" id="Fill-58" fill="#B6B6A7"/><path d="M79.275 12.826c-.596-1.225-.062-2.302.713-2.936l.06-.052c.214-.175.458-.289.718-.34-.046.03-.08.051-.117.084l-.06.054c-.775.633-.78 1.477-.184 2.701l4.697 9.842-.387-.519-5.44-8.834z" id="Fill-59" fill="#B6B6A7"/><path d="M81.428 10.964c-.59-1.222-.057-2.298.712-2.93l.061-.056c.22-.177.463-.285.717-.338-.035.026-.076.053-.11.084l-.063.055c-.778.633-.783 1.476-.193 2.7l8.128 17.093-.382-.518-8.87-16.09z" id="Fill-60" fill="#B6B6A7"/><path d="M54.378 78.028c0 .588-.474 1.061-1.059 1.061a1.06 1.06 0 0 1-1.064-1.06V38.803a1.062 1.062 0 1 1 2.123 0v39.224z" id="Fill-61" fill="#58B35C"/><path d="M49.864 65.32s-8.326 2.166-13-12.478c-.04-.137-.085-.277-.126-.417 0 0 13.009 4.412 13.126 12.895" id="Fill-62" fill="#62AC5E"/><path d="M56.77 65.32s8.331 2.166 12.998-12.478l.138-.417S56.892 56.837 56.77 65.32" id="Fill-63" fill="#62AC5E"/><path d="M63.122 22.945c0 5.246-4.397 9.5-9.817 9.5-5.426 0-9.818-4.254-9.818-9.5 0-5.25 4.392-9.5 9.818-9.5 5.42 0 9.817 4.25 9.817 9.5" id="Fill-64" fill="#F3B329"/><path d="M53.37 14.871a8.003 8.003 0 0 0-5.95 2.61 8.028 8.028 0 0 1 5.33-2c4.381 0 7.928 3.432 7.928 7.665 0 1.94-.753 3.71-1.975 5.06 1.588-1.404 2.586-3.424 2.586-5.668 0-4.236-3.547-7.667-7.919-7.667" id="Fill-65" fill="#FFF"/><path d="M59.534 44.497c.707 5.842-4.83 6.547-6.51 6.547-4.122 0-7.425-3.177-6.78-6.703l1.508-6.789c.417-2.45 2.36-4.176 5.099-4.176h.484c2.427-.045 4.372.871 5.079 4.082l1.12 7.04z" id="Fill-66" fill="#FFDA1A"/><path d="M42.881 42.415c-3.41 4.353-7.558 1.144-8.672.027-2.738-2.74-2.82-7.048-.051-8.954l5.512-3.51c1.898-1.354 4.346-1.205 6.163.611l.32.322c1.649 1.585 2.326 3.483.662 6.086l-3.934 5.418z" id="Fill-67" fill="#FFDA1A"/><path d="M33.17 29.794c-4.92.596-5.511-4.066-5.511-5.478 0-3.473 2.672-6.256 5.639-5.709l5.72 1.27c2.062.347 3.517 1.99 3.517 4.291v.411c.036 2.042-.732 3.676-3.44 4.274l-5.924.941z" id="Fill-68" fill="#FFDA1A"/><path d="M34.82 16.85c-4-1.794-2.322-5.596-1.675-6.665 1.583-2.628 4.88-3.514 6.875-1.746l3.752 3.574c1.4 1.205 1.756 3.11.703 4.854l-.184.31c-.911 1.563-2.24 2.451-4.56 1.666l-4.912-1.993z" id="Fill-69" fill="#FFDA1A"/><path d="M42.392 7.617c-2.35-3.698 1.146-5.947 2.275-6.48 2.77-1.324 6.011-.25 6.698 2.324l1.165 5.05c.51 1.777-.249 3.562-2.086 4.437l-.32.155c-1.619.81-3.223.816-4.724-1.115l-3.008-4.37z" id="Fill-70" fill="#FFDA1A"/><path d="M63.753 42.415c3.41 4.353 7.558 1.144 8.678.027 2.732-2.74 2.824-7.048.05-8.954l-5.517-3.51c-1.898-1.354-4.341-1.205-6.152.611l-.327.322c-1.643 1.585-2.32 3.483-.661 6.086l3.929 5.418z" id="Fill-71" fill="#FFDA1A"/><path d="M73.468 29.794c4.921.596 5.512-4.066 5.512-5.478 0-3.473-2.677-6.256-5.645-5.709l-5.715 1.27c-2.06.347-3.516 1.99-3.516 4.291v.411c-.036 2.042.737 3.676 3.44 4.274l5.924.941z" id="Fill-72" fill="#FFDA1A"/><path d="M71.824 16.85c3.99-1.794 2.31-5.596 1.665-6.665-1.578-2.628-4.876-3.514-6.871-1.746l-3.751 3.574c-1.404 1.205-1.756 3.11-.702 4.854l.188.31c.9 1.563 2.235 2.451 4.555 1.666l4.916-1.993z" id="Fill-73" fill="#FFDA1A"/><path d="M64.247 7.617c2.346-3.698-1.146-5.947-2.275-6.48-2.77-1.324-6.006-.25-6.703 2.324l-1.165 5.05c-.51 1.777.249 3.562 2.086 4.437l.326.155c1.618.81 3.216.816 4.723-1.115l3.008-4.37z" id="Fill-74" fill="#FFDA1A"/><path d="M53.223 93.342s-6.688-3.852-.01-12.189c0 0 6.453 7.904.01 12.19" id="Fill-75" fill="#62AC5E"/><path d="M10.823 77.601s-7.365-.179-4.81-11.246c.026-.109.046-.215.077-.324 0 0 8.22 5.678 4.733 11.57" id="Fill-76" fill="#62AC5E"/><path d="M12.263 81.886s-3.68 6.493-12-1.092l-.24-.22s8.835-4.62 12.24 1.312" id="Fill-77" fill="#62AC5E"/><path d="M17.72 87.474s-2.27 7.792-12.928 1.94c-.102-.057-.198-.113-.305-.174 0 0 8.168-7.148 13.232-1.766" id="Fill-78" fill="#62AC5E"/><path d="M24.066 90.685s.122 8.128-11.767 5.79c-.111-.026-.223-.049-.336-.074 0 0 5.685-9.304 12.103-5.716" id="Fill-79" fill="#62AC5E"/><path d="M26.122 88.471s-6.371-3.745 1.074-12.222c.066-.08.138-.164.214-.246 0 0 4.539 8.993-1.288 12.468" id="Fill-80" fill="#62AC5E"/><path d="M30.992 93.721s1.13 8.044-10.952 7.25c-.112-.01-.229-.016-.346-.025 0 0 4.493-9.965 11.298-7.225" id="Fill-81" fill="#62AC5E"/><path d="M32.02 90.794s-6.31-3.852 1.272-12.2c.067-.083.143-.164.22-.24 0 0 4.397 9.066-1.492 12.44" id="Fill-82" fill="#62AC5E"/><path d="M37.63 95.184s3.14 7.472-8.73 9.896c-.117.023-.229.05-.346.067 0 0 1.802-10.813 9.075-9.963" id="Fill-83" fill="#62AC5E"/><path d="M38.468 92.517s-6.336-3.807 1.186-12.212c.071-.084.143-.155.22-.23 0 0 4.457 9.028-1.406 12.442" id="Fill-84" fill="#62AC5E"/><path d="M45.757 92.9s-6.276-3.197.336-11.686c.065-.079.121-.166.192-.242 0 0 5.503 8.55-.528 11.927" id="Fill-85" fill="#62AC5E"/><path d="M45.41 96.334s4.983 6.8-6.479 12.22c-.106.051-.218.105-.33.152 0 0-.774-11.415 6.81-12.372" id="Fill-86" fill="#62AC5E"/><path d="M15.424 80.84s-6.102-3.02.204-11.316c.061-.075.122-.157.188-.236 0 0 4.748 7.971-.392 11.552" id="Fill-87" fill="#62AC5E"/><path d="M20.228 85.041s-6.27-3.939 1.415-12.189c.071-.077.148-.153.22-.233 0 0 4.29 9.12-1.635 12.422" id="Fill-88" fill="#62AC5E"/><path d="M95.815 77.601s7.36-.179 4.814-11.246a6.388 6.388 0 0 0-.08-.324s-8.219 5.678-4.734 11.57" id="Fill-89" fill="#62AC5E"/><path d="M94.376 81.886s3.685 6.493 12-1.092c.082-.074.158-.145.239-.22 0 0-8.83-4.62-12.24 1.312" id="Fill-90" fill="#62AC5E"/><path d="M88.92 87.474s2.269 7.792 12.927 1.94l.305-.174s-8.163-7.148-13.232-1.766" id="Fill-91" fill="#62AC5E"/><path d="M82.578 90.685s-.127 8.128 11.762 5.79c.112-.026.229-.049.336-.074 0 0-5.685-9.304-12.098-5.716" id="Fill-92" fill="#62AC5E"/><path d="M80.511 88.471s6.377-3.745-1.064-12.222c-.076-.08-.142-.164-.213-.246 0 0-4.55 8.993 1.277 12.468" id="Fill-93" fill="#62AC5E"/><path d="M75.641 93.721s-1.13 8.044 10.957 7.25c.112-.01.23-.016.347-.025 0 0-4.49-9.965-11.304-7.225" id="Fill-94" fill="#62AC5E"/><path d="M74.618 90.794s6.312-3.852-1.271-12.2c-.072-.083-.143-.164-.22-.24 0 0-4.397 9.066 1.49 12.44" id="Fill-95" fill="#62AC5E"/><path d="M69.01 95.184s-3.14 7.472 8.732 9.896c.108.023.225.05.336.067 0 0-1.795-10.813-9.069-9.963" id="Fill-96" fill="#62AC5E"/><path d="M68.165 92.517s6.337-3.807-1.186-12.212a3.618 3.618 0 0 0-.213-.23s-4.463 9.028 1.399 12.442" id="Fill-97" fill="#62AC5E"/><path d="M60.883 92.9s6.27-3.197-.337-11.686c-.066-.079-.127-.166-.193-.242 0 0-5.502 8.55.53 11.927" id="Fill-98" fill="#62AC5E"/><path d="M61.228 96.334s-4.982 6.8 6.48 12.22c.106.051.217.105.33.152 0 0 .768-11.415-6.81-12.372" id="Fill-99" fill="#62AC5E"/><path d="M91.21 80.84s6.107-3.02-.203-11.316c-.057-.075-.117-.157-.18-.236 0 0-4.758 7.971.383 11.552" id="Fill-100" fill="#62AC5E"/><path d="M86.41 85.041s6.266-3.939-1.42-12.189c-.065-.077-.142-.153-.213-.233 0 0-4.291 9.12 1.634 12.422" id="Fill-101" fill="#62AC5E"/><path d="M96.258 76.12c-6.03 10.717-20.876 17.883-40.846 18.395h-.032s-1.822-.125-2.117 1.036c-.29-1.16-2.112-1.036-2.112-1.036h-.036c-19.965-.512-34.81-7.678-40.842-18.395-1.787-3.187-2.137-3.322-.595-.215 5.364 10.842 19.61 18.852 39.213 19.911v.002h.052c.148.012.296.017.443.025.864.08 2.554.431 2.767 1.896v17.614c0 .632.495 1.145 1.105 1.176h.011a1.17 1.17 0 0 0 1.11-1.176V97.74c.208-1.465 1.903-1.817 2.768-1.896.148-.008.296-.013.443-.025h.055l-.005-.002c19.61-1.059 33.85-9.069 39.219-19.91 1.538-3.108 1.186-2.973-.6.214" id="Fill-102" fill="#62AC5E"/></g></g></svg>